# xmcd CD database file
#
# Track frame offsets:
#	150
#	14462
#	29692
#	43732
#	60117
#	74967
#	89362
#	104517
#	119250
#	133585
#	147802
#	163405
#	177097
#	191570
#
# Disc length: 2741 seconds
#
# Revision: 3
# Processed by: cddbd v1.5.2PL0 Copyright (c) Steve Scherf et al.
# Submitted via: CDex 1.51
#
DISCID=ce0ab30e
DTITLE=Die Flippers - Reise ins Glück
DYEAR=1900
DGENRE=
TTITLE0=Malaika
TTITLE1=Reise ins Glück
TTITLE2=Der Sommer mit dir
TTITLE3=Solang´es deine Liebe gibt
TTITLE4=Mexico
TTITLE5=Du bist die Sonne
TTITLE6=Silbermond und goldene Sterne
TTITLE7=Arrivederci, ciao Amor
TTITLE8=Tausendmal mit dir träumen
TTITLE9=Wenn es Frühling wird in Amsterdam
TTITLE10=Die Nacht von Santa Monica
TTITLE11=Wann kommst du wieder
TTITLE12=Monika
TTITLE13=Sag´ bitte beim Abschied auf Wiedersehen
EXTD=
EXTT0=
EXTT1=
EXTT2=
EXTT3=
EXTT4=
EXTT5=
EXTT6=
EXTT7=
EXTT8=
EXTT9=
EXTT10=
EXTT11=
EXTT12=
EXTT13=
PLAYORDER=
